<?xml version="1.0" standalone="no"?>
<!DOCTYPE svg PUBLIC "-//W3C//DTD SVG 20010904//EN"
 "http://www.w3.org/TR/2001/REC-SVG-20010904/DTD/svg10.dtd">
<svg version="1.0" xmlns="http://www.w3.org/2000/svg"
 width="16.000000pt" height="16.000000pt" viewBox="0 0 16.000000 16.000000"
 preserveAspectRatio="xMidYMid meet">
<metadata>
Created by potrace 1.11, written by Peter Selinger 2001-2013
</metadata>
<g transform="translate(0.000000,16.000000) scale(0.006154,-0.006154)"
fill="#000000" stroke="none">
<path d="M1205 2349 c-27 -3 -70 -9 -95 -13 -208 -28 -443 -154 -568 -303 -96
-115 -148 -228 -176 -383 -11 -60 -14 -65 -42 -71 -82 -17 -173 -95 -215 -186
-35 -74 -33 -199 3 -274 15 -30 45 -73 65 -93 38 -39 149 -99 165 -90 4 3 8
-1 9 -8 1 -15 3 -26 18 -100 40 -188 213 -376 445 -483 41 -19 84 -35 95 -35
11 0 22 -4 25 -9 3 -5 23 -12 43 -16 21 -5 43 -9 48 -11 6 -1 28 -5 50 -9 22
-3 49 -9 60 -12 30 -9 262 -11 309 -2 22 4 59 10 81 13 160 25 355 112 478
216 133 112 232 281 240 410 2 36 5 41 37 51 94 30 164 90 207 179 23 46 27
68 27 140 0 74 -3 93 -29 143 -37 75 -108 139 -187 169 l-61 23 -13 61 c-24
118 -109 266 -203 351 -56 52 -208 143 -238 143 -26 0 -12 18 25 33 l37 15
-85 26 c-47 15 -125 35 -174 44 l-90 18 38 22 c21 13 37 25 35 27 -16 15 -279
26 -364 14z"/>
</g>
</svg>
